<?xml version="1.0" encoding="utf-8"?>
<!-- Generator: Adobe Illustrator 27.0.0, SVG Export Plug-In . SVG Version: 6.00 Build 0)  -->
<svg version="1.1" id="Layer_1" xmlns="http://www.w3.org/2000/svg" xmlns:xlink="http://www.w3.org/1999/xlink" x="0px" y="0px"
	 viewBox="0 0 535 91.5" style="enable-background:new 0 0 535 91.5;" xml:space="preserve">
<style type="text/css">
	.st0{enable-background:new    ;}
	.st1{fill:#FFFFFF;}
	.st2{fill:none;stroke:#FFFFFF;stroke-width:4;stroke-miterlimit:10;}
</style>
<g class="st0">
	<path class="st1" d="M39.7,55.5v-6.4h30.8v6.4h-4.7c-2.4,0-3.8,0.8-3.8,3.5v24.4h-6.1l-2.1-5.7C49,82.2,42.1,85,32.8,85
		c-21.5,0-32-14.9-32-35.2c0-18.8,11.6-36.2,31.9-36.2c7.3,0,14.2,3,19.8,8l3-6.1H61v25.3h-6.3C52,25.7,42.6,21.1,33.6,21.1
		c-16.1,0-20.1,15.1-20.1,28.8c0,13.9,4.6,27.8,20.8,27.8c7.6,0,16.6-3.9,16.6-11.4v-7.2c0-1.9-1.4-3.6-3.4-3.6
		C47.5,55.5,39.7,55.5,39.7,55.5z"/>
</g>
<g class="st0">
	<path class="st1" d="M100.6,32.2c15.1,0,24.5,11.4,24.5,26.3c0,15.5-9.8,26.2-25.4,26.2c-16,0-24.5-11.4-24.5-26.7
		C75.1,43,85.4,32.2,100.6,32.2z M99.8,78.6c11.4,0,13.8-11.3,13.8-20.8c0-8.8-2.8-19.4-13.4-19.4c-11.2,0-13.6,11-13.6,20.1
		C86.6,67.6,88.6,78.6,99.8,78.6z"/>
	<path class="st1" d="M156.8,32.2c15.1,0,24.5,11.4,24.5,26.3c0,15.5-9.8,26.2-25.4,26.2c-16,0-24.5-11.4-24.5-26.7
		C131.4,43,141.6,32.2,156.8,32.2z M156,78.6c11.4,0,13.8-11.3,13.8-20.8c0-8.8-2.8-19.4-13.4-19.4c-11.2,0-13.6,11-13.6,20.1
		S144.8,78.6,156,78.6z"/>
	<path class="st1" d="M234.8,73.8c0,2.7,1.1,3.6,3,3.6h4.9v5.9h-17.1V78l1.1-5.2c-3.7,6.5-9.1,11.6-16.5,11.6
		c-15.4,0-22.6-11-22.6-25c0-14.3,7-27.3,21.8-27.3c7,0,12.3,1.4,15.5,7.7v-20c0-2-1.2-2.5-2.3-2.5h-6.3v-5.5l18.7-1.6v63.6H234.8z
		 M212.2,78c6.5,0,13-8.4,13-16.1v-8.5c0-8-4.2-14.5-14.2-14.5c-10.5,0-12,12.2-12,20.6C198.9,68.5,201.1,78,212.2,78z"/>
	<path class="st1" d="M279,14.3c7.3,0,14.4,2.9,19.7,8l3.1-6.2h5.7v25.4H301c-2.7-15.2-12.1-19.8-21.1-19.8
		c-16.1,0-20.1,15-20.1,28.8s4.6,27.8,20.8,27.8c13.7,0,20.6-10.7,20.6-23.6h7c0,17.1-8.2,30.8-29.2,30.8c-21.5,0-32.1-14.9-32.1-35
		C247.1,31.7,258.7,14.3,279,14.3z"/>
	<path class="st1" d="M339.9,32.2c15.1,0,24.5,11.4,24.5,26.3c0,15.5-9.8,26.2-25.4,26.2c-16,0-24.5-11.4-24.5-26.7
		C314.5,43,324.8,32.2,339.9,32.2z M339.1,78.6c11.4,0,13.8-11.3,13.8-20.8c0-8.8-2.8-19.4-13.4-19.4c-11.2,0-13.6,11-13.6,20.1
		S327.9,78.6,339.1,78.6z"/>
	<path class="st1" d="M396.2,32.2c15.1,0,24.5,11.4,24.5,26.3c0,15.5-9.8,26.2-25.4,26.2c-16,0-24.5-11.4-24.5-26.7
		C370.7,43,381,32.2,396.2,32.2z M395.4,78.6c11.4,0,13.8-11.3,13.8-20.8c0-8.8-2.8-19.4-13.4-19.4c-11.2,0-13.6,11-13.6,20.1
		C382.1,67.6,384.2,78.6,395.4,78.6z"/>
	<path class="st1" d="M424.7,83.3v-5.9h5.2c1,0,2.8-0.6,2.8-3.6v-54c0-2-1.2-2.5-2.2-2.5H424v-5.5l19-1.6v46.9
		c14.7-13.8,16.5-15,16.5-16.4c0-0.4-0.5-1.2-1.8-1.2h-4.3v-5.7h25.5v5.7h-4.6c-2.6,0-3.7,1-4.2,1.4l-12,10.7L475.6,75
		c2.1,2.8,4.2,2.8,7.6,2.8v5.6h-26.6v-5.9h5.2c0.8,0,1.7-0.6,1.7-1.3c0-1.7-4.1-7.2-12.9-17.8l-7.7,7v8.5c0,2.7,1.1,3.6,2.9,3.6h4.4
		v5.9L424.7,83.3L424.7,83.3z"/>
</g>
<path class="st2" d="M500.8,84.7l27.3-52.3c2.7-5.2-0.1-11.5-5.7-13l-17.6-4.8c-5.7-1.6-11.4,2.7-11.5,8.6l-1.4,59.2
	C491.8,87.4,498.5,89.1,500.8,84.7L500.8,84.7z M515.1,16.5c0,0-10.9-3.9-12-9.8c-0.5-2.5,0.7-3.2,1.8-3.2c2.3,0,8.6,2.5,11.7,7.9
	c0,0,5.5-2.9,10.6-1.7c1.1,0.3,4,2.1,3.8,2.9C529.5,17.7,515.1,16.5,515.1,16.5z"/>
</svg>
