<?xml version="1.0" encoding="UTF-8"?>
<svg id="Layer_1" data-name="Layer 1" xmlns="http://www.w3.org/2000/svg" viewBox="0 0 3565 52">
  <defs>
    <style>
      .cls-1 {
        fill: none;
        stroke: #000;
        stroke-miterlimit: 10;
        stroke-width: 2px;
      }
    </style>
  </defs>
  <path class="cls-1" d="M0,1c31.84,0,31.84,50,63.68,50S95.52,1,127.35,1s31.84,50,63.68,50S222.87,1,254.7,1s31.84,50,63.68,50S350.22,1,382.06,1s31.84,50,63.68,50S477.58,1,509.41,1s31.84,50,63.68,50S604.93,1,636.77,1s31.84,50,63.68,50S732.28,1,764.12,1s31.84,50,63.68,50S859.64,1,891.48,1s31.84,50,63.68,50S986.99,1,1018.83,1s31.84,50,63.68,50,31.84-50,63.68-50,31.84,50,63.68,50,31.84-50,63.68-50,31.84,50,63.68,50,31.84-50,63.68-50,31.84,50,63.68,50,31.84-50,63.68-50,31.84,50,63.68,50,31.84-50,63.68-50,31.84,50,63.69,50,31.84-50,63.69-50"/>
  <path class="cls-1" d="M1782,1c31.84,0,31.84,50,63.68,50s31.84-50,63.68-50,31.84,50,63.68,50,31.84-50,63.68-50,31.84,50,63.68,50,31.84-50,63.68-50,31.84,50,63.68,50,31.84-50,63.68-50,31.84,50,63.68,50,31.84-50,63.68-50,31.84,50,63.68,50,31.84-50,63.68-50,31.84,50,63.68,50,31.84-50,63.67-50,31.84,50,63.68,50,31.84-50,63.67-50,31.84,50,63.68,50,31.84-50,63.68-50,31.84,50,63.68,50,31.84-50,63.68-50,31.84,50,63.68,50,31.84-50,63.68-50,31.84,50,63.68,50,31.84-50,63.68-50,31.84,50,63.68,50,31.84-50,63.68-50,31.84,50,63.69,50,31.84-50,63.69-50"/>
</svg>